<!-- Generator: Adobe Illustrator 22.1.0, SVG Export Plug-In  -->
<svg version="1.1"
	 xmlns="http://www.w3.org/2000/svg" xmlns:xlink="http://www.w3.org/1999/xlink" xmlns:a="http://ns.adobe.com/AdobeSVGViewerExtensions/3.0/"
	 x="0px" y="0px" width="807.4px" height="187.7px" viewBox="0 0 807.4 187.7" style="enable-background:new 0 0 807.4 187.7;"
	 xml:space="preserve">
<style type="text/css">
	.st0{fill:#FFFFFF;stroke:#6B6B6B;stroke-width:0;stroke-miterlimit:10;}
	.st1{fill:#E83828;}
</style>
<defs>
</defs>
<g>
	<path class="st0" d="M307,13.8l-48.2,105.7h-11.3L197,13.8h28.3l27.6,59.6L279,13.8H307z"/>
	<path class="st0" d="M411.1,99v19.1h-76.9V13.8h75.9v19.1h-49.9v21.9h47.6v19.1h-47.6V99H411.1z"/>
	<path class="st0" d="M552,13.8v104.3H530l-57.6-66.8v66.8h-26V13.8h23.8L526,77.6V13.8H552z"/>
	<path class="st0" d="M668.1,13.8h26v59.2c0,15.2-4.5,26.8-13.5,34.7c-9,7.9-21.9,11.8-38.6,11.8c-16.5,0-29.4-4-38.5-11.9
		c-9.1-8-13.7-19.4-13.7-34.4V13.8h26.1v60c0,7.3,2.4,13.1,7.1,17.5c4.8,4.4,11,6.6,18.7,6.6c8,0,14.4-2.2,19.2-6.7
		c4.8-4.5,7.2-10.9,7.2-19.1V13.8z"/>
	<path class="st0" d="M802.7,20.6v20.4c-13.8-6.2-24.9-9.3-33.1-9.3c-4.7,0-8.4,0.8-11.2,2.4c-2.8,1.6-4.1,3.6-4.1,6.2
		c0,2,1,3.9,3,5.7c2,1.8,6.8,4.1,14.6,6.9c7.7,2.8,13.9,5.5,18.5,7.9c4.6,2.4,8.6,5.9,12,10.3c3.4,4.4,5,10,5,16.8
		c0,9.7-3.7,17.4-11,23.1c-7.3,5.7-17,8.6-29,8.6c-12.9,0-25.5-3.4-37.6-10.1V86.9c7,4.7,13.1,8.1,18.5,10.2
		c5.4,2.1,11.1,3.2,17.1,3.2c10.2,0,15.3-3.2,15.3-9.6c0-2.2-1-4.3-3.1-6.2c-2-1.9-7-4.3-14.8-7.1c-7.8-2.8-14-5.4-18.5-7.8
		c-4.6-2.4-8.5-5.8-11.8-10.2c-3.3-4.4-5-10.1-5-17c0-9,3.6-16.2,10.8-21.7c7.2-5.5,16.9-8.3,29-8.3
		C778.5,12.5,790.3,15.2,802.7,20.6z"/>
</g>
<g>
	<path class="st0" d="M237.3,161.4l-3.8-2.3c-2.4-1.4-4.1-2.9-5.1-4.3c-1-1.4-1.5-3-1.5-4.8c0-2.7,1-5,2.9-6.7
		c1.9-1.7,4.4-2.6,7.4-2.6c2.9,0,5.6,0.8,8,2.4v5.7c-2.5-2.4-5.2-3.6-8.1-3.6c-1.6,0-3,0.4-4,1.1c-1,0.8-1.6,1.7-1.6,2.9
		c0,1,0.4,2,1.2,2.9c0.8,0.9,2,1.9,3.7,2.9l3.8,2.3c4.2,2.5,6.4,5.8,6.4,9.7c0,2.8-0.9,5.1-2.8,6.8c-1.9,1.7-4.3,2.6-7.3,2.6
		c-3.4,0-6.6-1.1-9.4-3.2v-6.3c2.7,3.4,5.8,5.1,9.3,5.1c1.6,0,2.9-0.4,3.9-1.3c1-0.9,1.6-2,1.6-3.3
		C241.9,165.3,240.3,163.3,237.3,161.4z"/>
	<path class="st0" d="M268.8,153c3.5,0,6.4,1.1,8.7,3.4c2.3,2.3,3.5,5.1,3.5,8.5c0,3.3-1.2,6-3.5,8.2c-2.3,2.2-5.3,3.3-8.8,3.3
		c-3.4,0-6.3-1.1-8.6-3.3c-2.3-2.2-3.5-5-3.5-8.3c0-3.4,1.2-6.1,3.5-8.4C262.4,154.2,265.3,153,268.8,153z M268.6,157.1
		c-2.2,0-4,0.7-5.4,2.1c-1.4,1.4-2.1,3.2-2.1,5.5c0,2.2,0.7,4,2.1,5.4c1.4,1.4,3.3,2.1,5.5,2.1c2.2,0,4-0.7,5.5-2.1
		c1.4-1.4,2.1-3.2,2.1-5.4c0-2.2-0.7-4-2.2-5.4C272.7,157.8,270.8,157.1,268.6,157.1z"/>
	<path class="st0" d="M293,153.1v-1.4c0-3.7,0.8-6.4,2.4-8.2c1.6-1.8,3.4-2.7,5.6-2.7c0.9,0,2.1,0.1,3.4,0.4v4.4
		c-0.7-0.3-1.4-0.4-2.1-0.4c-1.8,0-3,0.5-3.7,1.4c-0.7,0.9-1,2.6-1,5.1v1.4h4.1v4.1h-4.1V176H293v-18.8h-3.3v-4.1H293z"/>
	<path class="st0" d="M308.5,156.7l8.5-8.4v4.7h7.2v4.1H317v11.2c0,2.6,1.1,3.9,3.3,3.9c1.6,0,3.3-0.5,5.2-1.6v4.2
		c-1.7,1-3.6,1.5-5.7,1.5c-2.1,0-3.8-0.6-5.2-1.8c-0.4-0.4-0.8-0.8-1.1-1.2c-0.3-0.5-0.5-1.1-0.7-1.8c-0.2-0.7-0.3-2.1-0.3-4.2
		v-10.2h-4V156.7z"/>
	<path class="st0" d="M363.8,153.1h4.9l-10.1,23.3h-1.4l-6.8-16l-6.7,16h-1.5l-10.2-23.3h4.9l6,13.9l5.9-13.9h3.4l5.8,13.9
		L363.8,153.1z"/>
	<path class="st0" d="M392.7,162.2v9.7c0,0.8,0.3,1.2,0.8,1.2c0.5,0,1.4-0.4,2.6-1.2v2.8c-1,0.7-1.9,1.1-2.5,1.4
		c-0.6,0.2-1.3,0.4-2,0.4c-1.9,0-3.1-0.8-3.4-2.3c-1.9,1.5-4,2.2-6.1,2.2c-1.6,0-2.9-0.5-4-1.6c-1.1-1.1-1.6-2.4-1.6-4
		c0-1.4,0.5-2.7,1.6-3.9c1-1.1,2.5-2,4.4-2.7l5.8-2V161c0-2.8-1.4-4.1-4.1-4.1c-2.5,0-4.9,1.3-7.2,3.8v-5c1.8-2.1,4.3-3.1,7.6-3.1
		c2.5,0,4.5,0.6,5.9,1.9c0.5,0.4,0.9,1,1.3,1.7c0.4,0.7,0.7,1.4,0.8,2.1C392.6,159,392.7,160.3,392.7,162.2z M388.2,171.5v-6.8
		l-3,1.2c-1.5,0.6-2.6,1.2-3.3,1.9c-0.6,0.6-1,1.4-1,2.3c0,0.9,0.3,1.7,0.9,2.3c0.6,0.6,1.4,0.9,2.4,0.9
		C385.6,173.2,387,172.6,388.2,171.5z"/>
	<path class="st0" d="M411.4,153.1v5.3l0.2-0.4c2.2-3.5,4.4-5.3,6.6-5.3c1.7,0,3.5,0.9,5.4,2.6l-2.4,4c-1.6-1.5-3-2.2-4.4-2.2
		c-1.5,0-2.7,0.7-3.8,2.1c-1.1,1.4-1.6,3-1.6,5v12h-4.6v-22.9H411.4z"/>
	<path class="st0" d="M451.7,164.9h-16.1c0.1,2.2,0.9,3.9,2.2,5.2c1.4,1.3,3.1,1.9,5.2,1.9c3,0,5.7-0.9,8.3-2.8v4.4
		c-1.4,0.9-2.8,1.6-4.1,2c-1.4,0.4-3,0.6-4.8,0.6c-2.5,0-4.6-0.5-6.1-1.6s-2.8-2.5-3.7-4.2c-0.9-1.8-1.4-3.8-1.4-6.1
		c0-3.5,1-6.3,3-8.5c2-2.2,4.5-3.3,7.7-3.3c3,0,5.5,1.1,7.3,3.2c1.8,2.1,2.7,5,2.7,8.5V164.9z M435.7,162.2h11.5
		c-0.1-1.8-0.7-3.2-1.6-4.2s-2.3-1.5-3.9-1.5c-1.6,0-3,0.5-4,1.5C436.7,159,436,160.4,435.7,162.2z"/>
	<path class="st0" d="M514.3,167.9v5.5c-3.7,2-7.9,3-12.6,3c-3.9,0-7.2-0.8-9.9-2.3s-4.8-3.7-6.4-6.4c-1.6-2.7-2.4-5.7-2.4-8.9
		c0-5.1,1.8-9.3,5.4-12.8c3.6-3.5,8.1-5.2,13.4-5.2c3.7,0,7.7,1,12.2,2.9v5.4c-4.1-2.3-8-3.5-11.9-3.5c-4,0-7.3,1.3-9.9,3.8
		c-2.6,2.5-3.9,5.7-3.9,9.4c0,3.8,1.3,7,3.9,9.4c2.6,2.5,5.9,3.7,9.9,3.7C506.2,171.8,510.3,170.5,514.3,167.9z"/>
	<path class="st0" d="M537.2,153c3.5,0,6.4,1.1,8.7,3.4c2.3,2.3,3.5,5.1,3.5,8.5c0,3.3-1.2,6-3.5,8.2c-2.3,2.2-5.3,3.3-8.8,3.3
		c-3.4,0-6.3-1.1-8.6-3.3c-2.3-2.2-3.5-5-3.5-8.3c0-3.4,1.2-6.1,3.5-8.4C530.8,154.2,533.7,153,537.2,153z M537,157.1
		c-2.2,0-4,0.7-5.4,2.1c-1.4,1.4-2.1,3.2-2.1,5.5c0,2.2,0.7,4,2.1,5.4c1.4,1.4,3.3,2.1,5.5,2.1c2.2,0,4-0.7,5.5-2.1
		c1.4-1.4,2.1-3.2,2.1-5.4c0-2.2-0.7-4-2.2-5.4C541.1,157.8,539.2,157.1,537,157.1z"/>
	<path class="st0" d="M565.7,153.1v5.3l0.2-0.4c2.2-3.5,4.4-5.3,6.6-5.3c1.7,0,3.5,0.9,5.4,2.6l-2.4,4c-1.6-1.5-3-2.2-4.4-2.2
		c-1.5,0-2.7,0.7-3.8,2.1c-1.1,1.4-1.6,3-1.6,5v12h-4.6v-22.9H565.7z"/>
	<path class="st0" d="M587.2,187.7v-34.6h7.9c4.1,0,7.2,1,9.5,3c2.3,2,3.4,4.9,3.4,8.5c0,3.4-1.1,6.3-3.2,8.5
		c-2.1,2.2-4.8,3.3-8.1,3.3c-1.5,0-3.1-0.3-4.8-1v12.2H587.2z M595.1,157.3h-3.2v14.1c1.4,0.7,2.8,1.1,4.4,1.1
		c2.1,0,3.9-0.7,5.2-2.2s2-3.4,2-5.7c0-1.5-0.3-2.8-1-4c-0.6-1.1-1.5-2-2.6-2.5C598.8,157.6,597.2,157.3,595.1,157.3z"/>
	<path class="st0" d="M630.4,153c3.5,0,6.4,1.1,8.7,3.4c2.3,2.3,3.5,5.1,3.5,8.5c0,3.3-1.2,6-3.5,8.2c-2.3,2.2-5.3,3.3-8.8,3.3
		c-3.4,0-6.3-1.1-8.6-3.3c-2.3-2.2-3.5-5-3.5-8.3c0-3.4,1.2-6.1,3.5-8.4C624,154.2,626.9,153,630.4,153z M630.2,157.1
		c-2.2,0-4,0.7-5.4,2.1c-1.4,1.4-2.1,3.2-2.1,5.5c0,2.2,0.7,4,2.1,5.4c1.4,1.4,3.3,2.1,5.5,2.1c2.2,0,4-0.7,5.5-2.1
		c1.4-1.4,2.1-3.2,2.1-5.4c0-2.2-0.7-4-2.2-5.4C634.3,157.8,632.4,157.1,630.2,157.1z"/>
	<path class="st0" d="M658.9,153.1v5.3l0.2-0.4c2.2-3.5,4.4-5.3,6.6-5.3c1.7,0,3.5,0.9,5.4,2.6l-2.4,4c-1.6-1.5-3-2.2-4.4-2.2
		c-1.5,0-2.7,0.7-3.8,2.1c-1.1,1.4-1.6,3-1.6,5v12h-4.6v-22.9H658.9z"/>
	<path class="st0" d="M695.1,162.2v9.7c0,0.8,0.3,1.2,0.8,1.2c0.5,0,1.4-0.4,2.6-1.2v2.8c-1,0.7-1.9,1.1-2.5,1.4
		c-0.6,0.2-1.3,0.4-2,0.4c-1.9,0-3.1-0.8-3.4-2.3c-1.9,1.5-4,2.2-6.1,2.2c-1.6,0-2.9-0.5-4-1.6c-1.1-1.1-1.6-2.4-1.6-4
		c0-1.4,0.5-2.7,1.6-3.9c1-1.1,2.5-2,4.4-2.7l5.8-2V161c0-2.8-1.4-4.1-4.1-4.1c-2.5,0-4.9,1.3-7.2,3.8v-5c1.8-2.1,4.3-3.1,7.6-3.1
		c2.5,0,4.5,0.6,5.9,1.9c0.5,0.4,0.9,1,1.3,1.7c0.4,0.7,0.7,1.4,0.8,2.1C695.1,159,695.1,160.3,695.1,162.2z M690.7,171.5v-6.8
		l-3,1.2c-1.5,0.6-2.6,1.2-3.3,1.9c-0.6,0.6-1,1.4-1,2.3c0,0.9,0.3,1.7,0.9,2.3c0.6,0.6,1.4,0.9,2.4,0.9
		C688.1,173.2,689.5,172.6,690.7,171.5z"/>
	<path class="st0" d="M705.8,156.7l8.5-8.4v4.7h7.2v4.1h-7.2v11.2c0,2.6,1.1,3.9,3.3,3.9c1.6,0,3.3-0.5,5.2-1.6v4.2
		c-1.7,1-3.6,1.5-5.7,1.5c-2.1,0-3.8-0.6-5.2-1.8c-0.4-0.4-0.8-0.8-1.1-1.2c-0.3-0.5-0.5-1.1-0.7-1.8c-0.2-0.7-0.3-2.1-0.3-4.2
		v-10.2h-4V156.7z"/>
	<path class="st0" d="M734.8,143.5c0.7,0,1.4,0.3,1.9,0.8c0.5,0.5,0.8,1.1,0.8,1.9c0,0.7-0.3,1.4-0.8,1.9c-0.5,0.5-1.2,0.8-1.9,0.8
		c-0.7,0-1.3-0.3-1.8-0.8c-0.5-0.5-0.8-1.2-0.8-1.9c0-0.7,0.3-1.3,0.8-1.9C733.5,143.7,734.1,143.5,734.8,143.5z M732.5,153.1h4.5
		V176h-4.5V153.1z"/>
	<path class="st0" d="M761,153c3.5,0,6.4,1.1,8.7,3.4c2.3,2.3,3.5,5.1,3.5,8.5c0,3.3-1.2,6-3.5,8.2c-2.3,2.2-5.3,3.3-8.8,3.3
		c-3.4,0-6.3-1.1-8.6-3.3c-2.3-2.2-3.5-5-3.5-8.3c0-3.4,1.2-6.1,3.5-8.4C754.6,154.2,757.5,153,761,153z M760.8,157.1
		c-2.2,0-4,0.7-5.4,2.1c-1.4,1.4-2.1,3.2-2.1,5.5c0,2.2,0.7,4,2.1,5.4c1.4,1.4,3.3,2.1,5.5,2.1c2.2,0,4-0.7,5.5-2.1
		c1.4-1.4,2.1-3.2,2.1-5.4c0-2.2-0.7-4-2.2-5.4C764.9,157.8,763,157.1,760.8,157.1z"/>
	<path class="st0" d="M789.2,153.1v2.9c2-2.2,4.3-3.4,6.9-3.4c1.4,0,2.8,0.4,4,1.1c1.2,0.7,2.2,1.8,2.8,3c0.6,1.3,1,3.3,1,6.1V176
		h-4.5v-13c0-2.3-0.4-4-1.1-5c-0.7-1-1.9-1.5-3.6-1.5c-2.1,0-4,1.1-5.5,3.2V176h-4.6v-22.9H789.2z"/>
</g>
<g>
	<g>
		<g>
			<path class="st1" d="M31.7,20.9c1-0.8,1.7-1.2,2.2-1.2c0.5-0.1,0.6,0.4,0.3,1.4c-0.3,1-0.9,2.3-1.8,4c-0.7,1.3-1.6,2.8-2.6,4.2
				c-1,1.5-1.9,2.7-2.9,3.8c-0.9,1.1-2,2-3.1,2.9c-1.1,0.9-2.2,1.5-3.2,2c-0.9,0.4-1.6,0.7-2.2,0.8c-0.6,0.1-1,0-1.1-0.4
				c-0.2-0.3-0.1-0.9,0.3-1.6c0.4-0.8,0.9-1.6,1.7-2.6c0.9-1.2,1.9-2.5,3.1-3.9c1.2-1.4,2.3-2.7,3.4-3.8c1.1-1.1,2.2-2.2,3.2-3.2
				C29.9,22.3,30.9,21.5,31.7,20.9z M29.2,24.4c-0.3,0.2-0.6,0.5-1,0.9c-0.5,0.5-0.9,1-1.4,1.6c-0.6,0.7-1.2,1.4-1.8,2.2
				c-0.6,0.9-1.3,1.7-1.9,2.7c-0.5,0.8-0.9,1.4-1.1,1.9c-0.2,0.5-0.2,0.7-0.1,0.9c0.1,0.1,0.4,0.1,0.7-0.1c0.2-0.1,0.4-0.3,0.7-0.5
				c0.3-0.2,0.6-0.5,1-1c0.4-0.4,0.8-1,1.3-1.7c0.5-0.7,1-1.3,1.4-2c0.4-0.7,0.9-1.3,1.3-2c0.8-1.4,1.3-2.3,1.4-2.7
				C29.9,24.1,29.7,24,29.2,24.4z"/>
			<path class="st1" d="M38.3,30.2c0.6-1.4,1.5-3.7,2.8-6.9s2.3-5.4,2.9-6.8c-0.3,0.3-0.6,0.6-1,1c-0.3,0.3-1,1-2.1,2.2
				c0.4-0.8,0.8-1.7,1.3-2.7c0.5-1,0.9-1.8,1.1-2.3c0.4-0.4,0.9-0.9,1.5-1.5c0.6-0.6,0.9-0.9,1-1.1c0.1-0.1,0.3-0.5,0.6-0.7
				c0.4-0.3,1.2-0.6,1.9-1c0.7-0.4,1.4-0.7,2.1-1.1c-0.6,1.3-0.8,1.9-1.4,3.2c-1.7,4.2-2.6,6.3-4.1,10.5c-0.5,1.5-0.8,2.3-1.3,3.8
				c-0.2,0.7-0.3,1.1-0.6,1.8c-0.6,0.2-1.4,0.4-2.2,0.7C39.8,29.6,39,29.9,38.3,30.2z"/>
			<path class="st1" d="M63.8,3.4c1-0.3,1.8-0.3,2.5,0.1c0.7,0.4,1.1,1.3,1.3,2.8c0.2,1.4,0.1,3.2-0.2,5.3c-0.3,1.6-0.7,3.3-1.2,5
				c-0.6,1.7-1.2,3-1.9,4.1c-0.7,1.1-1.5,2-2.5,2.7c-1,0.7-2,1.2-3,1.4c-0.9,0.2-1.7,0.2-2.4,0c-0.7-0.2-1.2-0.7-1.6-1.4
				c-0.4-0.7-0.5-1.6-0.5-2.7c0.1-1.1,0.3-2.3,0.6-3.6c0.4-1.6,1-3.2,1.7-4.9c0.7-1.7,1.5-3.1,2.3-4.2c0.8-1.2,1.6-2.1,2.5-2.9
				C62.2,4.2,63,3.7,63.8,3.4z M62.8,7.8c-0.3,0.1-0.6,0.3-0.9,0.7c-0.4,0.4-0.7,1-1,1.6c-0.4,0.8-0.7,1.6-1,2.6
				c-0.4,1-0.7,2.1-0.9,3.3c-0.2,1-0.4,1.9-0.4,2.5c0,0.6,0.1,1.1,0.3,1.4c0.2,0.3,0.5,0.4,0.9,0.3c0.2,0,0.4-0.2,0.7-0.3
				c0.2-0.2,0.5-0.5,0.8-0.9c0.3-0.4,0.6-1,0.9-1.8c0.3-0.8,0.6-1.6,0.8-2.4c0.2-0.8,0.4-1.6,0.6-2.4c0.3-1.7,0.4-2.9,0.3-3.7
				C63.6,8,63.3,7.7,62.8,7.8z"/>
			<path class="st1" d="M76.3,21.7c0.2-1.6,0.5-4.2,0.9-7.8c0.4-3.6,0.7-6.1,0.8-7.7c-0.3,0.3-0.5,0.5-0.8,0.8
				c-0.2,0.3-0.8,0.9-1.6,1.8C75.8,8,75.9,6.9,76,5.8c0.2-1.2,0.3-2.1,0.3-2.6c0.4-0.3,0.7-0.8,1.2-1.2c0.4-0.5,0.7-0.8,0.8-0.9
				c0.1-0.1,0.3-0.5,0.4-0.6c0.3-0.2,1.2-0.1,1.9-0.2c0.7-0.1,1.4-0.1,2.1-0.2c-0.1,1.4-0.2,2.1-0.3,3.5c-0.4,4.6-0.6,6.9-0.9,11.5
				c-0.1,1.7-0.2,2.5-0.3,4.2c0,0.8,0,1.2-0.1,2c-0.6,0-1.4,0-2.3,0.1C77.8,21.6,77,21.6,76.3,21.7z"/>
			<path class="st1" d="M96,0c1,0.1,1.9,0.6,2.8,1.3c0.9,0.8,1.6,2,2.3,3.6c0.6,1.6,1.1,3.5,1.4,5.6c0.2,1.7,0.2,3.3,0.1,4.9
				c-0.1,1.6-0.4,2.9-0.9,3.8c-0.5,0.9-1.1,1.6-2,2.1c-0.9,0.5-1.8,0.7-2.9,0.6c-0.9-0.1-1.7-0.3-2.5-0.7c-0.8-0.4-1.5-1.1-2.1-2.1
				c-0.6-0.9-1-2-1.3-3.3c-0.3-1.3-0.4-2.6-0.4-4c0-1.7,0.1-3.4,0.3-5.1c0.2-1.7,0.6-3,1.1-4c0.5-1,1.1-1.8,1.8-2.2
				C94.4,0.1,95.2-0.1,96,0z M96.3,4.6c-0.3,0-0.6,0.1-0.8,0.4c-0.3,0.3-0.5,0.8-0.6,1.4c-0.2,0.7-0.3,1.6-0.3,2.5
				c-0.1,1-0.1,2.2,0,3.4c0.1,1.1,0.2,2,0.3,2.7c0.2,0.7,0.4,1.3,0.7,1.7c0.3,0.4,0.7,0.6,1,0.7c0.2,0,0.4,0,0.6-0.2
				c0.2-0.1,0.4-0.4,0.6-0.8c0.2-0.4,0.3-0.9,0.5-1.7c0.1-0.7,0.2-1.5,0.2-2.3c0-0.8,0-1.6-0.1-2.5c-0.1-1.8-0.4-3.1-0.8-4
				C97.2,5.1,96.8,4.7,96.3,4.6z"/>
			<path class="st1" d="M114.3,23.8c-0.2-1.5-0.5-4-1-7.4c-0.5-3.4-1-5.9-1.3-7.3c-0.2,0.2-0.4,0.3-0.6,0.5
				c-0.2,0.2-0.6,0.6-1.2,1.2c-0.1-0.8-0.3-1.8-0.5-3c-0.2-1.1-0.3-2-0.5-2.5c0.3-0.2,0.6-0.5,0.9-0.7c0.3-0.3,0.5-0.5,0.6-0.5
				c0.1-0.1,0.2-0.4,0.3-0.4c0.2-0.1,1.2,0.4,1.9,0.7c0.7,0.2,1.4,0.5,2.1,0.7c0.3,1.3,0.4,1.9,0.7,3.2c1,4.3,1.4,6.4,2.2,10.8
				c0.3,1.6,0.5,2.4,0.8,4c0.2,0.8,0.2,1.1,0.4,1.9c-0.6-0.2-1.4-0.3-2.3-0.5C115.8,24.1,115,23.9,114.3,23.8z"/>
			<path class="st1" d="M133.3,28.9c-0.4-1.4-1-3.7-2-6.8c-1-3.1-1.8-5.4-2.3-6.7c-0.2,0.1-0.3,0.2-0.5,0.3
				c-0.1,0.1-0.5,0.4-0.9,0.8c-0.2-0.8-0.5-1.7-0.9-2.7c-0.4-1-0.7-1.8-0.8-2.3c0.2-0.1,0.5-0.3,0.7-0.4c0.3-0.2,0.4-0.3,0.4-0.3
				c0,0,0.2-0.2,0.2-0.2c0.2,0,1.2,0.7,1.9,1.1c0.7,0.4,1.4,0.8,2.1,1.2c0.5,1.1,0.7,1.7,1.2,2.9c1.7,3.9,2.4,5.8,3.8,9.7
				c0.5,1.4,0.8,2.2,1.3,3.6c0.3,0.7,0.4,1,0.6,1.7c-0.6-0.2-1.4-0.5-2.3-0.8C134.8,29.4,134,29.1,133.3,28.9z"/>
			<path class="st1" d="M144.2,21.3c1,0.8,2.1,1.7,3.2,2.8c1.2,1.1,2.4,2.4,3.8,3.9c1.3,1.5,2.6,3,3.7,4.5c0.9,1.2,1.6,2.3,2.1,3.2
				c0.5,1,0.7,1.7,0.6,2.1c-0.1,0.4-0.5,0.6-1.2,0.5c-0.7-0.1-1.5-0.3-2.6-0.8c-0.9-0.4-1.8-1-2.7-1.6c-0.9-0.7-1.9-1.5-2.8-2.5
				c-0.9-1-1.7-2-2.5-3.2c-0.7-1.1-1.4-2.2-2-3.4c-0.7-1.4-1.3-2.7-1.8-3.8c-0.5-1.2-0.7-2-0.7-2.5c0-0.5,0.2-0.7,0.7-0.5
				C142.7,20.3,143.4,20.7,144.2,21.3z M146.6,24.7c-0.3-0.2-0.5-0.3-0.6-0.2c-0.1,0.1-0.1,0.3,0,0.6c0.2,0.4,0.4,1,0.7,1.6
				c0.4,0.7,0.8,1.6,1.4,2.6c0.5,0.8,1,1.6,1.4,2.2c0.5,0.6,0.9,1.2,1.4,1.6c0.5,0.5,0.9,0.8,1.3,1c0.2,0.1,0.4,0.2,0.5,0.2
				c0.1,0,0.2-0.1,0.3-0.3c0-0.2,0-0.5-0.2-1c-0.2-0.5-0.4-1-0.8-1.5c-0.3-0.6-0.7-1.2-1.1-1.8c-0.9-1.3-1.7-2.4-2.5-3.2
				C147.7,25.7,147.1,25.1,146.6,24.7z"/>
			<path class="st1" d="M15.6,49.9c1.3-0.4,2.3-0.5,3.2-0.4c0.8,0.2,1.3,0.8,1.5,1.9c0.2,1.1,0,2.5-0.4,4.2
				c-0.4,1.3-0.9,2.7-1.6,4.1c-0.7,1.4-1.4,2.5-2.2,3.4c-0.8,0.9-1.8,1.7-2.9,2.3c-1.1,0.6-2.3,1-3.5,1.2c-1,0.2-2,0.2-2.8,0.1
				c-0.8-0.1-1.5-0.5-2-1c-0.5-0.5-0.7-1.2-0.7-2c0-0.8,0.2-1.7,0.6-2.7c0.4-1.2,1.1-2.5,1.9-3.7c0.8-1.3,1.7-2.4,2.7-3.4
				c1-1,2-1.8,3.1-2.5C13.5,50.8,14.6,50.2,15.6,49.9z M14.2,53.4c-0.4,0.1-0.8,0.3-1.1,0.6c-0.5,0.4-0.9,0.8-1.3,1.3
				c-0.5,0.6-0.9,1.3-1.3,2.1c-0.4,0.8-0.8,1.7-1.1,2.6c-0.3,0.8-0.4,1.5-0.4,2c0,0.5,0.1,0.9,0.4,1.1c0.3,0.2,0.6,0.3,1.1,0.2
				c0.3-0.1,0.5-0.2,0.8-0.3c0.3-0.1,0.6-0.4,0.9-0.8c0.3-0.4,0.7-0.9,1.1-1.5c0.4-0.6,0.7-1.3,0.9-1.9c0.3-0.7,0.5-1.3,0.7-2
				c0.4-1.4,0.6-2.3,0.4-2.9C15.3,53.4,14.9,53.2,14.2,53.4z"/>
			<path class="st1" d="M30.1,63.3c0.3-1.4,0.8-3.7,1.5-6.8c0.7-3.1,1.3-5.4,1.7-6.7c-0.3,0.3-0.7,0.5-1,0.8
				c-0.3,0.3-1.1,0.9-2.2,1.8c0.2-0.8,0.5-1.7,0.8-2.7c0.3-1,0.5-1.8,0.6-2.3c0.5-0.4,1-0.8,1.6-1.3c0.6-0.5,1-0.8,1.1-0.9
				c0.1-0.1,0.4-0.4,0.6-0.6c0.5-0.2,1.5-0.3,2.4-0.5c0.9-0.2,1.8-0.4,2.7-0.6c-0.4,1.3-0.6,1.9-0.9,3.2c-1.1,4.2-1.5,6.2-2.4,10.4
				c-0.3,1.5-0.4,2.3-0.7,3.8c-0.1,0.7-0.1,1.1-0.2,1.8c-0.7,0.1-1.6,0.2-2.6,0.3C31.9,63,30.9,63.2,30.1,63.3z"/>
			<path class="st1" d="M57,40c1.3-0.2,2.4,0,3.3,0.5c1,0.5,1.6,1.5,2.1,3c0.4,1.5,0.6,3.3,0.4,5.4c-0.1,1.6-0.4,3.3-0.9,4.9
				c-0.5,1.6-1.1,3-1.8,4c-0.7,1-1.6,1.8-2.7,2.4c-1.1,0.6-2.2,0.9-3.4,1c-1,0.1-2,0-2.8-0.3c-0.9-0.3-1.6-0.9-2.2-1.7
				c-0.6-0.8-1-1.8-1.1-2.9c-0.1-1.1-0.1-2.4,0.1-3.7c0.2-1.6,0.6-3.2,1.2-4.8c0.6-1.6,1.3-3,2.1-4c0.8-1.1,1.7-1.9,2.7-2.6
				C54.9,40.6,55.9,40.2,57,40z M56.4,44.5c-0.4,0-0.7,0.2-1.1,0.5c-0.4,0.4-0.7,0.9-1,1.5c-0.3,0.7-0.6,1.6-0.9,2.5
				c-0.3,1-0.5,2.1-0.6,3.3c-0.1,1-0.1,1.9,0,2.6c0.1,0.7,0.3,1.2,0.6,1.5c0.3,0.3,0.7,0.5,1.1,0.5c0.3,0,0.5-0.1,0.8-0.3
				c0.2-0.1,0.5-0.4,0.8-0.8c0.3-0.4,0.6-1,0.8-1.7c0.3-0.7,0.5-1.5,0.6-2.3c0.2-0.8,0.3-1.6,0.4-2.4c0.2-1.7,0.1-2.9-0.2-3.7
				C57.5,44.7,57,44.4,56.4,44.5z"/>
			<path class="st1" d="M77.7,38.1c1.3-0.1,2.4,0.2,3.4,0.8c1,0.6,1.8,1.7,2.4,3.3c0.6,1.6,0.8,3.4,0.8,5.6c0,1.7-0.2,3.4-0.6,5
				c-0.4,1.7-0.9,3-1.6,4c-0.7,1-1.5,1.8-2.6,2.4c-1.1,0.6-2.2,0.9-3.4,0.9c-1,0-2-0.1-2.9-0.5c-0.9-0.4-1.6-1-2.3-1.9
				c-0.6-0.9-1.1-1.9-1.3-3.1c-0.2-1.2-0.3-2.5-0.2-3.9c0.1-1.7,0.4-3.4,0.8-5c0.5-1.7,1.1-3,1.8-4.1c0.7-1.1,1.5-1.9,2.5-2.5
				C75.6,38.5,76.6,38.2,77.7,38.1z M77.4,42.7c-0.4,0-0.7,0.2-1,0.5c-0.4,0.4-0.7,0.9-0.9,1.5c-0.3,0.7-0.5,1.6-0.7,2.6
				c-0.2,1-0.3,2.2-0.4,3.4c0,1.1,0,2,0.1,2.7c0.1,0.7,0.4,1.3,0.7,1.6c0.3,0.4,0.7,0.6,1.2,0.6c0.3,0,0.5-0.1,0.7-0.2
				c0.2-0.1,0.5-0.4,0.8-0.8c0.3-0.4,0.5-1,0.7-1.8c0.2-0.8,0.4-1.6,0.5-2.4c0.1-0.8,0.2-1.7,0.2-2.5c0-1.8-0.1-3.1-0.5-3.9
				C78.6,43.1,78.1,42.7,77.4,42.7z"/>
			<path class="st1" d="M98.4,38.1c1.3,0.1,2.4,0.5,3.5,1.2c1.1,0.7,1.9,1.9,2.6,3.5c0.7,1.6,1.1,3.5,1.2,5.6c0.1,1.7,0,3.3-0.3,4.9
				c-0.3,1.6-0.7,2.9-1.3,3.9c-0.6,1-1.4,1.7-2.5,2.2c-1,0.5-2.2,0.8-3.4,0.7c-1,0-2-0.2-2.9-0.7c-0.9-0.4-1.7-1.1-2.4-2
				c-0.7-0.9-1.2-2-1.4-3.3c-0.3-1.3-0.4-2.6-0.4-4c0-1.7,0.1-3.4,0.5-5.1c0.3-1.7,0.8-3,1.4-4c0.6-1,1.4-1.8,2.3-2.3
				C96.3,38.3,97.3,38.1,98.4,38.1z M98.5,42.7c-0.4,0-0.7,0.1-1,0.4c-0.3,0.3-0.6,0.8-0.8,1.4c-0.2,0.7-0.4,1.6-0.5,2.5
				c-0.1,1-0.2,2.2-0.1,3.4c0,1.1,0.1,2,0.3,2.7c0.2,0.7,0.5,1.3,0.8,1.7c0.3,0.4,0.8,0.6,1.2,0.6c0.3,0,0.5-0.1,0.7-0.2
				c0.2-0.1,0.5-0.4,0.7-0.8c0.3-0.4,0.5-1,0.6-1.7c0.2-0.7,0.3-1.5,0.3-2.3c0.1-0.8,0.1-1.6,0-2.5c-0.1-1.8-0.3-3.1-0.7-3.9
				C99.7,43.2,99.1,42.7,98.5,42.7z"/>
			<path class="st1" d="M118.7,60.6c0-1.5,0-4-0.2-7.5c-0.2-3.4-0.3-5.9-0.5-7.4c-0.3,0.2-0.5,0.4-0.8,0.6c-0.3,0.2-0.8,0.7-1.7,1.4
				c0-0.8-0.1-1.8-0.2-3c-0.1-1.1-0.2-2-0.2-2.5c0.4-0.2,0.8-0.5,1.3-0.9c0.5-0.3,0.7-0.5,0.8-0.6c0.1-0.1,0.3-0.4,0.5-0.4
				c0.4-0.1,1.5,0.2,2.4,0.4c0.9,0.1,1.8,0.3,2.7,0.4c0.1,1.3,0.2,1.9,0.2,3.2c0.4,4.3,0.6,6.5,0.8,10.8c0.1,1.6,0.2,2.4,0.3,4
				c0.1,0.8,0.1,1.1,0.2,1.9c-0.7-0.1-1.6-0.2-2.6-0.2C120.5,60.7,119.5,60.7,118.7,60.6z"/>
			<path class="st1" d="M139.7,44.1c1.3,0.3,2.5,0.9,3.7,1.7c1.2,0.8,2.2,2,3.2,3.4c0.9,1.5,1.6,3.1,2.1,4.9
				c0.3,1.4,0.5,2.8,0.4,4.1c-0.1,1.3-0.4,2.4-0.9,3.1c-0.5,0.8-1.2,1.3-2.2,1.6c-1,0.3-2.1,0.4-3.3,0.3c-1-0.1-2-0.4-3-0.9
				c-0.9-0.5-1.8-1.1-2.6-2.1c-0.8-0.9-1.4-1.9-1.8-3.1s-0.7-2.4-0.9-3.7c-0.2-1.6-0.3-3.1-0.2-4.5c0.1-1.4,0.4-2.6,0.8-3.4
				c0.4-0.8,1.1-1.3,2-1.6C137.7,43.9,138.7,43.9,139.7,44.1z M140.6,48.1c-0.4-0.1-0.7,0-0.9,0.2c-0.3,0.2-0.5,0.6-0.6,1.1
				c-0.1,0.6-0.2,1.3-0.1,2.1c0,0.9,0.1,1.9,0.3,3c0.2,1,0.4,1.8,0.7,2.5c0.3,0.7,0.6,1.2,1,1.6c0.4,0.4,0.8,0.6,1.3,0.7
				c0.3,0,0.5,0,0.7-0.1c0.2-0.1,0.4-0.3,0.6-0.6c0.2-0.3,0.3-0.8,0.4-1.4c0.1-0.6,0.1-1.3,0-2c0-0.7-0.2-1.4-0.3-2.1
				c-0.3-1.5-0.8-2.7-1.3-3.5C141.9,48.8,141.3,48.3,140.6,48.1z"/>
			<path class="st1" d="M163,66c-0.2-1.2-0.5-3.2-1.1-5.9c-0.6-2.7-1.2-4.7-1.5-5.8c-0.2,0.1-0.5,0.2-0.7,0.3
				c-0.2,0.1-0.7,0.4-1.4,0.8c-0.2-0.7-0.4-1.5-0.6-2.4c-0.3-0.9-0.5-1.6-0.6-2c0.3-0.1,0.7-0.3,1.1-0.4c0.4-0.2,0.6-0.3,0.7-0.3
				c0.1,0,0.3-0.2,0.4-0.2c0.4-0.1,1.5,0.5,2.5,0.8c0.9,0.3,1.8,0.6,2.7,0.9c0.3,1,0.5,1.5,0.8,2.4c1.2,3.3,1.6,4.9,2.4,8.3
				c0.3,1.2,0.5,1.8,0.7,3.1c0.2,0.6,0.2,0.9,0.4,1.5c-0.7-0.1-1.6-0.3-2.6-0.5C164.8,66.3,163.8,66.1,163,66z"/>
			<path class="st1" d="M8.6,78.9c1.4-0.1,2.6,0.1,3.7,0.5c1.1,0.4,1.9,1.3,2.5,2.5c0.6,1.2,0.8,2.7,0.8,4.4c0,1.3-0.2,2.7-0.5,4
				c-0.4,1.3-0.8,2.3-1.4,3.1c-0.6,0.8-1.5,1.3-2.5,1.7c-1.1,0.4-2.2,0.5-3.4,0.4c-1.1-0.1-2.1-0.3-3-0.7c-0.9-0.4-1.8-0.9-2.5-1.6
				c-0.7-0.7-1.3-1.5-1.6-2.4S0,89.1,0,88.1c0-1.2,0.2-2.4,0.6-3.6c0.4-1.2,1-2.2,1.8-3c0.8-0.8,1.7-1.4,2.8-1.9
				C6.3,79.2,7.4,78.9,8.6,78.9z M8.2,82.4c-0.4,0-0.8,0.1-1.1,0.4c-0.4,0.3-0.7,0.7-1,1.1c-0.3,0.6-0.5,1.2-0.7,1.9
				c-0.2,0.8-0.3,1.6-0.2,2.6c0,0.8,0.1,1.5,0.3,2c0.2,0.5,0.5,1,0.8,1.3c0.4,0.3,0.8,0.5,1.3,0.5c0.3,0,0.5,0,0.8-0.1
				c0.2-0.1,0.5-0.3,0.8-0.6c0.3-0.3,0.5-0.7,0.7-1.3c0.2-0.6,0.3-1.2,0.4-1.8c0.1-0.6,0.1-1.3,0.1-1.9c0-1.4-0.2-2.4-0.5-3
				C9.5,82.6,8.9,82.3,8.2,82.4z"/>
			<path class="st1" d="M28.6,96.4c0-1.4,0.1-3.6,0.2-6.7c0.1-3.1,0.3-5.3,0.3-6.7c-0.3,0.2-0.6,0.4-1,0.6c-0.3,0.2-1,0.7-2,1.5
				c0.1-0.8,0.1-1.6,0.2-2.7c0.1-1,0.1-1.8,0.2-2.2c0.5-0.3,1-0.6,1.5-1c0.6-0.4,0.9-0.6,1.1-0.7c0.1-0.1,0.4-0.4,0.6-0.5
				c0.5-0.2,1.7-0.1,2.7-0.1c1,0,1.9-0.1,2.9-0.2c-0.2,1.2-0.2,1.9-0.4,3.1c-0.4,4.1-0.5,6.2-0.6,10.3c0,1.5,0,2.3,0,3.8
				c0,0.7,0,1.1,0.1,1.8c-0.7-0.1-1.6-0.1-2.7-0.1C30.5,96.5,29.4,96.5,28.6,96.4z"/>
			<path class="st1" d="M54,76.7c1.4,0,2.7,0.2,3.8,0.8c1.1,0.6,2,1.7,2.6,3.2c0.6,1.5,0.9,3.3,0.9,5.4c0,1.6-0.2,3.3-0.6,4.9
				c-0.4,1.6-0.9,2.9-1.5,3.8c-0.6,1-1.5,1.7-2.6,2.2c-1.1,0.5-2.2,0.7-3.5,0.7c-1.1,0-2-0.3-3-0.7c-0.9-0.4-1.8-1.1-2.5-1.9
				c-0.7-0.9-1.2-1.9-1.5-3.1c-0.3-1.2-0.5-2.4-0.5-3.7c0-1.6,0.2-3.2,0.6-4.7c0.4-1.6,1-2.8,1.7-3.8c0.7-1,1.6-1.8,2.7-2.3
				C51.7,77,52.8,76.7,54,76.7z M53.8,81.1c-0.4,0-0.8,0.2-1.1,0.4c-0.4,0.3-0.7,0.8-0.9,1.4c-0.3,0.7-0.5,1.5-0.7,2.4
				c-0.2,1-0.2,2.1-0.2,3.3c0,1,0.1,1.9,0.3,2.6c0.2,0.7,0.5,1.2,0.8,1.6c0.4,0.4,0.8,0.6,1.2,0.6c0.3,0,0.5-0.1,0.8-0.2
				c0.2-0.1,0.5-0.4,0.8-0.8c0.3-0.4,0.5-0.9,0.7-1.7c0.2-0.7,0.4-1.5,0.4-2.3c0.1-0.8,0.1-1.6,0.1-2.4c0-1.7-0.2-3-0.6-3.8
				C55,81.5,54.5,81.1,53.8,81.1z"/>
			<path class="st1" d="M76.7,76.2c1.4,0,2.7,0.3,3.8,0.9c1.1,0.6,2,1.8,2.6,3.3c0.6,1.6,0.9,3.5,0.9,5.6c0,1.7-0.2,3.4-0.6,5
				c-0.4,1.7-0.9,3-1.6,4c-0.7,1-1.5,1.8-2.6,2.3c-1.1,0.5-2.2,0.8-3.5,0.8c-1.1,0-2-0.2-3-0.6c-0.9-0.4-1.7-1.1-2.4-2
				c-0.7-0.9-1.2-2-1.5-3.2c-0.3-1.2-0.4-2.6-0.4-4c0-1.7,0.2-3.4,0.6-5c0.4-1.6,1-3,1.7-4c0.7-1,1.6-1.8,2.6-2.3
				C74.4,76.5,75.5,76.2,76.7,76.2z M76.6,80.8c-0.4,0-0.8,0.2-1.1,0.4c-0.4,0.4-0.7,0.8-0.9,1.4c-0.3,0.7-0.5,1.6-0.6,2.5
				c-0.2,1-0.2,2.2-0.2,3.4c0,1.1,0.1,2,0.3,2.7c0.2,0.7,0.4,1.3,0.8,1.7c0.4,0.4,0.8,0.6,1.2,0.6c0.3,0,0.5-0.1,0.8-0.2
				c0.2-0.1,0.5-0.4,0.8-0.8s0.5-1,0.7-1.7c0.2-0.8,0.4-1.5,0.5-2.4c0.1-0.8,0.1-1.7,0.1-2.5c0-1.8-0.2-3.1-0.6-3.9
				C77.8,81.2,77.3,80.8,76.6,80.8z"/>
			<path class="st1" d="M96.8,97.8c0.1-1.6,0.3-4.2,0.5-7.8c0.2-3.6,0.3-6.1,0.3-7.7c-0.3,0.2-0.6,0.5-0.9,0.7c-0.3,0.2-1,0.8-2,1.7
				c0.1-0.9,0.1-1.9,0.1-3.1c0-1.2,0.1-2.1,0.1-2.6c0.4-0.3,0.9-0.7,1.5-1.1c0.6-0.4,0.9-0.7,1-0.8c0.1-0.1,0.4-0.4,0.6-0.5
				c0.4-0.2,1.7,0,2.7,0.1c1,0,1.9,0,2.9,0c-0.1,1.4-0.1,2.1-0.2,3.4c-0.2,4.6-0.3,6.9-0.5,11.4c-0.1,1.7-0.1,2.5-0.2,4.2
				c0,0.8,0,1.2,0,2c-0.7,0-1.6,0-2.7,0C98.6,97.8,97.6,97.8,96.8,97.8z"/>
			<path class="st1" d="M119.5,97.5c0.2-1.6,0.4-4.1,0.6-7.5c0.2-3.5,0.3-5.9,0.3-7.4c-0.3,0.2-0.6,0.4-0.9,0.7
				c-0.3,0.2-1,0.7-2,1.6c0-0.9,0.1-1.9,0.1-3c0-1.1,0-2,0-2.5c0.4-0.3,0.9-0.6,1.5-1c0.6-0.4,0.9-0.6,1-0.7
				c0.1-0.1,0.4-0.4,0.6-0.5c0.5-0.2,1.7,0.1,2.7,0.1c1,0,1.9,0,2.9,0.1c-0.1,1.3-0.1,2-0.2,3.3c-0.1,4.3-0.2,6.5-0.5,10.9
				c-0.1,1.6-0.1,2.4-0.2,4c0,0.8,0,1.1-0.1,1.9c-0.7,0-1.6,0-2.7,0.1C121.4,97.4,120.3,97.4,119.5,97.5z"/>
			<path class="st1" d="M142.2,96.6c0.2-1.4,0.4-3.7,0.6-6.9c0.2-3.2,0.3-5.4,0.3-6.8c-0.3,0.2-0.6,0.4-0.9,0.6
				c-0.3,0.2-1,0.7-2,1.4c0-0.8,0.1-1.7,0.1-2.8s0-1.8,0-2.3c0.4-0.3,0.9-0.6,1.5-0.9c0.5-0.3,0.9-0.6,1-0.7
				c0.1-0.1,0.4-0.4,0.5-0.4c0.5-0.1,1.7,0.1,2.7,0.2c1,0,1.9,0.1,2.9,0.1c0,1.2-0.1,1.8-0.1,3c-0.1,3.9-0.2,5.9-0.5,9.9
				c-0.1,1.5-0.1,2.2-0.3,3.6c0,0.7-0.1,1-0.1,1.7c-0.7,0-1.6,0.1-2.7,0.1C144.1,96.5,143,96.6,142.2,96.6z"/>
			<path class="st1" d="M167.6,78.9c1.4,0.1,2.7,0.4,3.9,1c1.2,0.5,2.1,1.4,2.8,2.6c0.7,1.2,1.1,2.5,1.1,4c0,1.2-0.2,2.4-0.6,3.5
				c-0.4,1.2-1,2.2-1.7,2.9c-0.7,0.8-1.6,1.4-2.8,1.8s-2.3,0.8-3.5,0.8c-1.1,0.1-2,0-2.9-0.3c-0.9-0.3-1.7-0.7-2.3-1.4
				c-0.7-0.7-1.1-1.5-1.3-2.5c-0.2-1-0.4-2.1-0.3-3.2c0-1.4,0.2-2.7,0.5-4.1c0.4-1.3,0.8-2.4,1.5-3.2c0.6-0.8,1.5-1.4,2.5-1.7
				C165.3,79,166.4,78.8,167.6,78.9z M167.7,82.4c-0.4,0-0.8,0.1-1.1,0.3c-0.4,0.3-0.7,0.6-0.9,1.1c-0.3,0.6-0.4,1.2-0.6,1.9
				c-0.1,0.8-0.2,1.7-0.2,2.7c0,0.8,0.1,1.5,0.2,2.1c0.2,0.6,0.4,1,0.7,1.3c0.3,0.3,0.7,0.4,1.2,0.4c0.3,0,0.5-0.1,0.8-0.2
				c0.3-0.1,0.5-0.3,0.8-0.6c0.3-0.3,0.5-0.8,0.8-1.3c0.2-0.6,0.4-1.2,0.5-1.8c0.1-0.6,0.2-1.2,0.1-1.9c0-1.3-0.3-2.3-0.7-2.9
				C169,82.8,168.4,82.4,167.7,82.4z"/>
			<path class="st1" d="M10.5,107.9c1.4,0.2,2.7,0.7,3.9,1.4c1.2,0.7,2.2,1.7,3.1,3.1c0.9,1.4,1.5,2.9,2,4.7
				c0.3,1.4,0.5,2.6,0.6,3.9c0,1.2-0.1,2.1-0.5,2.8c-0.3,0.6-0.9,1-1.8,1.1c-0.8,0.1-1.8,0-2.9-0.4c-1-0.3-1.9-0.8-2.9-1.4
				s-1.9-1.3-2.8-2.2c-0.9-0.9-1.7-1.8-2.3-2.8c-0.6-1-1.1-1.9-1.5-2.9c-0.5-1.2-0.7-2.4-0.7-3.4c0-1.1,0.2-1.9,0.7-2.6
				c0.5-0.6,1.2-1,2.1-1.2C8.3,107.7,9.3,107.7,10.5,107.9z M11.2,111.3c-0.4-0.1-0.7,0-1,0.1c-0.3,0.2-0.5,0.5-0.6,0.9
				c-0.1,0.5-0.1,1.1,0,1.7c0.1,0.7,0.3,1.6,0.6,2.5c0.3,0.8,0.6,1.5,1,2.1c0.4,0.6,0.8,1.1,1.2,1.5c0.4,0.4,0.9,0.7,1.3,0.8
				c0.2,0.1,0.5,0.1,0.7,0.1s0.4-0.2,0.5-0.4c0.1-0.2,0.2-0.6,0.2-1.1c0-0.5,0-1.1-0.2-1.7c-0.1-0.6-0.3-1.3-0.4-1.9
				c-0.4-1.4-0.8-2.4-1.4-3.2C12.5,111.9,11.9,111.5,11.2,111.3z"/>
			<path class="st1" d="M33.8,129.6c-0.3-1.4-0.7-3.6-1.2-6.7c-0.5-3.1-0.8-5.3-1-6.6c-0.3,0.2-0.5,0.3-0.8,0.5
				c-0.3,0.2-0.8,0.5-1.6,1.1c-0.1-0.7-0.2-1.6-0.4-2.6c-0.1-1-0.2-1.8-0.3-2.2c0.4-0.2,0.8-0.4,1.3-0.7c0.5-0.3,0.8-0.5,0.9-0.5
				c0.1-0.1,0.3-0.3,0.5-0.4c0.4-0.1,1.6,0.2,2.6,0.4c0.9,0.1,1.9,0.2,2.9,0.3c0.1,1.2,0.1,1.8,0.2,3.1c0.4,4.1,0.6,6.1,1.2,10.2
				c0.2,1.5,0.4,2.3,0.7,3.8c0.2,0.7,0.2,1.1,0.4,1.8c-0.7-0.2-1.5-0.4-2.5-0.6C35.5,129.9,34.6,129.7,33.8,129.6z"/>
			<path class="st1" d="M54.8,113.3c1.4,0.1,2.6,0.5,3.8,1.2c1.1,0.7,2.1,1.8,2.8,3.4c0.7,1.6,1.1,3.4,1.3,5.5
				c0.1,1.6,0.1,3.3-0.1,4.8c-0.2,1.6-0.6,2.8-1.1,3.7c-0.5,0.9-1.2,1.6-2.2,2c-0.9,0.4-1.9,0.5-3.1,0.4c-1-0.1-1.9-0.5-2.8-1
				c-0.9-0.5-1.7-1.3-2.5-2.2c-0.8-1-1.4-2-1.8-3.3c-0.4-1.2-0.7-2.5-0.9-3.8c-0.2-1.6-0.2-3.2-0.1-4.7c0.2-1.5,0.6-2.7,1.2-3.6
				c0.6-0.9,1.4-1.6,2.3-2C52.6,113.4,53.7,113.2,54.8,113.3z M55.1,117.7c-0.4,0-0.7,0.1-1,0.3c-0.3,0.3-0.6,0.7-0.8,1.3
				c-0.2,0.7-0.3,1.5-0.3,2.4c0,1,0,2.1,0.1,3.3c0.1,1,0.3,1.9,0.6,2.6c0.2,0.7,0.6,1.3,0.9,1.7c0.4,0.4,0.8,0.7,1.2,0.7
				c0.2,0,0.5,0,0.7-0.1c0.2-0.1,0.4-0.3,0.6-0.7s0.4-0.9,0.5-1.6c0.1-0.7,0.2-1.5,0.2-2.2c0-0.8,0-1.6-0.1-2.4
				c-0.2-1.7-0.5-3-0.9-3.8C56.3,118.2,55.7,117.8,55.1,117.7z"/>
			<path class="st1" d="M75.3,135.8c0-1.6,0-4.2,0-7.7c0-3.6,0-6.1,0-7.7c-0.3,0.2-0.6,0.4-0.9,0.7c-0.3,0.2-0.9,0.7-1.8,1.6
				c0-0.9,0-1.9,0-3.1c0-1.2,0-2,0-2.6c0.4-0.3,0.9-0.6,1.4-1c0.5-0.4,0.9-0.6,1-0.7c0.1-0.1,0.4-0.4,0.5-0.5
				c0.4-0.2,1.6,0.1,2.6,0.1c0.9,0,1.9,0,2.9,0c-0.1,1.4-0.1,2.1-0.2,3.5c-0.1,4.6-0.2,6.9-0.3,11.5c0,1.7,0,2.5,0,4.2
				c0,0.8,0,1.2,0.1,2c-0.7,0-1.5-0.1-2.5-0.1C76.9,135.9,76,135.9,75.3,135.8z"/>
			<path class="st1" d="M99.1,114.4c1.4,0,2.6,0.3,3.7,0.9c1.1,0.6,1.9,1.7,2.4,3.2c0.5,1.5,0.7,3.4,0.6,5.5c-0.1,1.7-0.4,3.3-0.8,5
				c-0.5,1.7-1,3-1.7,4c-0.7,1-1.5,1.9-2.5,2.5c-1,0.6-2.1,0.9-3.2,1c-1,0-1.8-0.1-2.7-0.5c-0.8-0.4-1.6-1-2.2-1.9
				c-0.6-0.9-1.1-2-1.3-3.2c-0.2-1.2-0.4-2.6-0.3-4c0-1.7,0.2-3.4,0.6-5.1c0.4-1.7,0.9-3,1.6-4.1c0.7-1.1,1.5-1.8,2.6-2.4
				C96.9,114.7,98,114.4,99.1,114.4z M98.9,118.9c-0.4,0-0.8,0.2-1.1,0.5c-0.4,0.4-0.7,0.9-0.9,1.5c-0.3,0.7-0.5,1.6-0.7,2.6
				c-0.2,1.1-0.3,2.2-0.3,3.5c0,1.1,0,2,0.2,2.7c0.1,0.7,0.4,1.3,0.7,1.6c0.3,0.4,0.7,0.6,1.1,0.5c0.2,0,0.5-0.1,0.7-0.2
				s0.5-0.4,0.8-0.8c0.3-0.4,0.5-1,0.8-1.8c0.2-0.8,0.4-1.6,0.5-2.4c0.1-0.8,0.2-1.7,0.2-2.5c0.1-1.8-0.1-3-0.4-3.9
				C100.1,119.3,99.6,118.9,98.9,118.9z"/>
			<path class="st1" d="M116.7,134.3c0.3-1.6,0.7-4.1,1.3-7.5c0.5-3.5,0.8-5.9,1-7.4c-0.3,0.3-0.6,0.5-1,0.8c-0.3,0.3-1,0.8-2,1.8
				c0.1-0.9,0.3-1.9,0.4-3c0.1-1.2,0.2-2,0.3-2.5c0.4-0.3,1-0.7,1.5-1.1c0.6-0.4,0.9-0.7,1.1-0.8c0.1-0.1,0.4-0.5,0.6-0.5
				c0.5-0.2,1.6-0.1,2.6-0.2c0.9-0.1,1.9-0.2,2.9-0.3c-0.2,1.3-0.3,2-0.6,3.3c-0.6,4.4-1,6.6-1.8,11c-0.3,1.6-0.4,2.4-0.7,4
				c-0.1,0.8-0.2,1.1-0.3,1.9c-0.7,0.1-1.5,0.2-2.5,0.3C118.4,134,117.4,134.1,116.7,134.3z"/>
			<path class="st1" d="M143.5,111c1.4-0.2,2.6,0,3.6,0.4c1,0.4,1.7,1.2,2.1,2.5c0.4,1.2,0.4,2.7,0,4.5c-0.3,1.4-0.8,2.8-1.5,4.3
				c-0.7,1.5-1.5,2.7-2.3,3.7c-0.8,1-1.8,1.9-2.9,2.6c-1.1,0.7-2.2,1.2-3.4,1.5c-1,0.2-1.8,0.3-2.6,0.1c-0.8-0.2-1.4-0.6-1.8-1.3
				c-0.5-0.7-0.7-1.6-0.8-2.7c-0.1-1.1,0-2.3,0.2-3.6c0.3-1.6,0.7-3.1,1.3-4.7c0.6-1.6,1.3-2.8,2.1-3.9c0.8-1,1.7-1.8,2.8-2.4
				C141.2,111.5,142.3,111.2,143.5,111z M142.8,115.1c-0.4,0.1-0.8,0.2-1.1,0.5c-0.4,0.4-0.8,0.8-1.1,1.4c-0.4,0.7-0.7,1.5-1,2.3
				c-0.3,1-0.6,2-0.8,3.1c-0.2,1-0.3,1.8-0.2,2.4c0,0.6,0.2,1.1,0.4,1.3c0.3,0.3,0.6,0.4,1,0.3c0.2-0.1,0.5-0.2,0.7-0.3
				c0.3-0.2,0.6-0.5,0.9-0.9c0.3-0.4,0.7-1,1-1.7c0.3-0.7,0.6-1.4,0.9-2.1c0.2-0.7,0.4-1.5,0.6-2.2c0.3-1.5,0.3-2.6,0-3.3
				C143.9,115.3,143.5,115,142.8,115.1z"/>
			<path class="st1" d="M158.1,124.8c0.6-1.3,1.5-3.3,2.5-6.1c1.1-2.8,1.7-4.8,2-6c-0.4,0.2-0.7,0.5-1,0.7c-0.3,0.2-1.1,0.8-2.2,1.7
				c0.2-0.7,0.5-1.5,0.8-2.5c0.3-0.9,0.4-1.6,0.5-2.1c0.5-0.3,1-0.7,1.6-1.1c0.6-0.4,1-0.7,1.1-0.8c0.1-0.1,0.4-0.4,0.6-0.5
				c0.5-0.2,1.6-0.3,2.6-0.4c0.9-0.2,1.9-0.3,2.9-0.5c-0.4,1-0.5,1.5-0.9,2.6c-1.1,3.4-1.8,5.1-3.3,8.6c-0.5,1.3-0.8,1.9-1.3,3.1
				c-0.2,0.6-0.4,0.9-0.6,1.5c-0.7,0.2-1.5,0.5-2.4,0.8C159.8,124.3,158.9,124.6,158.1,124.8z"/>
			<path class="st1" d="M21.3,136.9c1.2,0.6,2.4,1.3,3.6,2.3c1.2,0.9,2.3,2.2,3.5,3.7c1.1,1.5,2.1,3.1,3,4.9
				c0.7,1.4,1.3,2.6,1.7,3.7c0.5,1.1,0.7,2,0.7,2.4c0,0.5-0.2,0.6-0.7,0.5c-0.5-0.1-1.2-0.5-2-1.2c-0.7-0.6-1.6-1.3-2.4-2.1
				c-0.9-0.8-1.8-1.8-2.9-2.8c-1-1-2-2.1-2.9-3.1c-0.9-1-1.7-2.1-2.5-3.1c-0.9-1.2-1.6-2.3-2.1-3.3c-0.5-1-0.7-1.7-0.6-2.1
				c0.1-0.4,0.5-0.6,1.2-0.5C19.5,136.1,20.4,136.4,21.3,136.9z M23.2,140.3c-0.3-0.2-0.6-0.2-0.7-0.1c-0.2,0.1-0.2,0.3-0.1,0.7
				c0.1,0.4,0.3,1,0.7,1.6c0.4,0.7,0.9,1.5,1.5,2.4c0.5,0.8,1.1,1.5,1.6,2.2c0.5,0.6,1,1.2,1.4,1.7c0.5,0.5,0.9,0.8,1.2,1.1
				c0.2,0.1,0.3,0.2,0.5,0.2c0.1,0,0.2,0,0.2-0.2c0-0.2-0.1-0.5-0.3-1c-0.2-0.5-0.5-1-0.8-1.6c-0.3-0.6-0.7-1.2-1-1.9
				c-0.8-1.4-1.5-2.5-2.2-3.3C24.4,141.2,23.8,140.6,23.2,140.3z"/>
			<path class="st1" d="M45.7,162.7c-0.6-1.3-1.5-3.5-2.6-6.6c-1.2-3.1-1.9-5.3-2.4-6.6c-0.2,0.1-0.4,0.2-0.5,0.3
				c-0.2,0.1-0.5,0.4-1,0.7c-0.3-0.7-0.6-1.6-1-2.6c-0.4-1-0.6-1.7-0.8-2.2c0.3-0.1,0.6-0.3,0.9-0.4c0.3-0.2,0.5-0.3,0.6-0.4
				c0.1-0.1,0.2-0.3,0.3-0.3c0.3-0.1,1.4,0.5,2.2,0.8c0.8,0.3,1.6,0.5,2.4,0.8c0.3,1.2,0.4,1.8,0.7,3c1.1,4.1,1.7,6.1,3.1,10.1
				c0.5,1.5,0.8,2.2,1.4,3.7c0.3,0.7,0.4,1.1,0.7,1.8c-0.5-0.3-1.2-0.6-1.9-1C47,163.4,46.3,163,45.7,162.7z"/>
			<path class="st1" d="M59.4,149.9c1.2,0.2,2.3,0.8,3.3,1.6c1,0.8,1.9,2,2.7,3.6c0.7,1.6,1.3,3.5,1.6,5.6c0.3,1.6,0.4,3.2,0.4,4.8
				c0,1.5-0.2,2.7-0.5,3.6c-0.3,0.8-0.8,1.4-1.4,1.7c-0.7,0.3-1.4,0.3-2.3,0c-0.7-0.2-1.5-0.7-2.2-1.3c-0.8-0.6-1.5-1.5-2.3-2.5
				c-0.7-1-1.4-2.2-1.9-3.4c-0.5-1.2-1-2.5-1.3-3.8c-0.4-1.6-0.7-3.1-0.8-4.6c-0.1-1.5,0.1-2.6,0.4-3.4c0.3-0.8,0.9-1.4,1.7-1.7
				C57.6,149.8,58.5,149.7,59.4,149.9z M60.2,154.3c-0.3-0.1-0.6,0-0.8,0.2c-0.2,0.3-0.4,0.7-0.5,1.2c-0.1,0.6-0.1,1.4,0,2.3
				c0.1,1,0.3,2,0.6,3.2c0.2,1,0.5,1.9,0.8,2.7c0.3,0.7,0.6,1.3,1,1.8c0.4,0.5,0.7,0.7,1,0.8c0.2,0.1,0.4,0,0.5,0
				c0.2-0.1,0.3-0.3,0.4-0.6c0.1-0.3,0.2-0.8,0.2-1.5c0-0.7,0-1.4-0.1-2.2c-0.1-0.8-0.2-1.6-0.4-2.4c-0.3-1.7-0.7-3-1.2-3.9
				C61.3,155,60.7,154.4,60.2,154.3z"/>
			<path class="st1" d="M78,173.9c-0.1-1.6-0.2-4.2-0.4-7.7c-0.2-3.6-0.3-6.1-0.4-7.7c-0.2,0.2-0.5,0.4-0.7,0.6
				c-0.2,0.2-0.7,0.7-1.4,1.5c0-0.9-0.1-1.9-0.2-3.1c-0.1-1.2-0.1-2-0.2-2.6c0.3-0.3,0.7-0.6,1.2-0.9c0.4-0.4,0.7-0.6,0.8-0.7
				c0.1-0.1,0.3-0.4,0.4-0.5c0.3-0.1,1.4,0.1,2.2,0.2c0.8,0,1.6,0.1,2.5,0.1c0,1.4-0.1,2.1-0.1,3.5c0,4.6,0,6.9,0.1,11.5
				c0,1.7,0.1,2.5,0.1,4.2c0,0.8,0.1,1.2,0.1,2c-0.5-0.1-1.2-0.1-1.9-0.2C79.3,174,78.6,173.9,78,173.9z"/>
			<path class="st1" d="M97.5,152.5c1.2-0.1,2.2,0.2,3.1,0.7c0.9,0.6,1.5,1.6,1.9,3.1c0.4,1.5,0.4,3.3,0.2,5.4c-0.2,1.7-0.5,3.3-1,5
				c-0.5,1.7-1,3-1.6,4.1c-0.6,1.1-1.3,1.9-2.1,2.6c-0.8,0.7-1.7,1-2.5,1.1c-0.7,0.1-1.4-0.1-2.1-0.4s-1.2-1-1.7-1.9
				c-0.5-0.9-0.8-2-1-3.2c-0.2-1.2-0.3-2.6-0.2-4c0-1.7,0.2-3.4,0.6-5.1c0.3-1.7,0.8-3,1.4-4.1c0.6-1.1,1.4-1.9,2.3-2.4
				C95.6,152.8,96.5,152.5,97.5,152.5z M97.2,157.1c-0.3,0-0.6,0.2-0.9,0.5c-0.3,0.4-0.6,0.9-0.8,1.5c-0.3,0.7-0.5,1.6-0.6,2.6
				c-0.2,1.1-0.3,2.2-0.4,3.5c-0.1,1.1,0,2,0,2.7c0.1,0.7,0.3,1.3,0.5,1.6c0.2,0.4,0.5,0.5,0.9,0.5c0.2,0,0.4-0.1,0.6-0.3
				c0.2-0.2,0.4-0.4,0.6-0.9c0.2-0.4,0.5-1,0.7-1.8c0.2-0.8,0.4-1.6,0.5-2.4c0.1-0.8,0.2-1.7,0.3-2.5c0.1-1.8,0.1-3-0.2-3.9
				C98.2,157.4,97.7,157,97.2,157.1z"/>
			<path class="st1" d="M116.6,149.8c1.2-0.2,2.2-0.2,3,0.2c0.8,0.4,1.3,1.3,1.5,2.6c0.2,1.3,0,3-0.5,5c-0.4,1.6-1,3.2-1.7,4.8
				c-0.7,1.6-1.5,3-2.2,4.1c-0.7,1.1-1.6,2.1-2.5,2.9c-0.9,0.8-1.8,1.3-2.7,1.6c-0.7,0.2-1.4,0.3-2,0.1c-0.6-0.2-1-0.7-1.4-1.4
				c-0.3-0.8-0.5-1.7-0.5-2.9c0-1.2,0.1-2.4,0.3-3.8c0.3-1.7,0.7-3.4,1.2-5c0.6-1.7,1.2-3.1,1.9-4.2c0.7-1.1,1.6-2,2.5-2.7
				C114.6,150.4,115.6,150,116.6,149.8z M115.7,154.2c-0.3,0.1-0.7,0.3-1,0.6c-0.4,0.4-0.7,0.9-1,1.6c-0.4,0.8-0.7,1.6-1,2.6
				c-0.3,1-0.6,2.2-0.8,3.4c-0.2,1.1-0.3,1.9-0.3,2.6c0,0.7,0.1,1.1,0.2,1.4c0.2,0.3,0.4,0.4,0.8,0.3c0.2-0.1,0.4-0.2,0.6-0.4
				c0.2-0.2,0.5-0.5,0.8-0.9c0.3-0.4,0.6-1.1,0.9-1.8c0.3-0.8,0.6-1.6,0.9-2.4c0.3-0.8,0.5-1.6,0.7-2.4c0.4-1.7,0.5-2.9,0.3-3.6
				C116.6,154.4,116.2,154.1,115.7,154.2z"/>
			<path class="st1" d="M126.4,164.4c0.7-1.5,1.7-3.8,3.1-7c1.3-3.2,2.2-5.5,2.7-6.9c-0.3,0.3-0.7,0.6-1,0.9c-0.3,0.3-1,1-2.1,2.1
				c0.3-0.8,0.7-1.7,1-2.8c0.4-1.1,0.6-1.9,0.8-2.4c0.4-0.4,1-0.9,1.5-1.4c0.6-0.5,0.9-0.9,1.1-1c0.1-0.1,0.4-0.5,0.6-0.6
				c0.4-0.3,1.4-0.5,2.2-0.8c0.8-0.3,1.6-0.6,2.5-0.9c-0.5,1.2-0.8,1.8-1.3,3.1c-1.7,4-2.6,6-4.5,10.1c-0.7,1.5-1,2.2-1.7,3.7
				c-0.3,0.7-0.5,1-0.8,1.7c-0.5,0.3-1.2,0.6-1.9,1.1C127.7,163.7,127,164.1,126.4,164.4z"/>
			<path class="st1" d="M142.5,154.3c0.9-1.3,2.4-3.4,4.2-6.2c1.8-2.8,3.1-4.8,3.7-6c-0.4,0.3-0.7,0.6-1.1,1c-0.3,0.3-1.1,1-2.3,2.1
				c0.4-0.7,0.9-1.5,1.4-2.5c0.5-0.9,0.9-1.6,1.1-2.1c0.5-0.4,1-0.9,1.7-1.4c0.6-0.5,1-0.9,1.2-1c0.1-0.1,0.4-0.4,0.7-0.6
				c0.5-0.3,1.4-0.7,2.2-1.1c0.8-0.4,1.6-0.8,2.5-1.3c-0.7,1.1-1,1.6-1.7,2.6c-2.3,3.5-3.5,5.2-6,8.7c-0.9,1.3-1.4,1.9-2.4,3.2
				c-0.4,0.6-0.7,0.9-1.1,1.5c-0.5,0.4-1.1,0.9-1.9,1.5C143.9,153.3,143.1,153.8,142.5,154.3z"/>
		</g>
	</g>
</g>
</svg>
